<svg width="141" height="143" viewBox="0 0 141 143" fill="none" xmlns="http://www.w3.org/2000/svg">
    <path d="M96.5233 60.4464V47.53H44.6426V60.4464H68.9684V66.9046H44.6426V79.8209H68.9684V87.8936H54.4375C53.5451 87.8936 52.8229 88.6158 52.8229 89.5082C52.8229 90.4006 53.5451 91.1227 54.4375 91.1227H86.7284C87.6208 91.1227 88.3429 90.4006 88.3429 89.5082C88.3429 88.6158 87.6208 87.8936 86.7284 87.8936H72.1975V79.8209H96.5233V66.9046H72.1975V60.4464H96.5233Z" fill="url(#paint0_linear)"/>
    <path d="M70.5832 84.6643C67.9123 84.6643 65.7396 86.8371 65.7396 89.508C65.7396 92.1789 67.9123 94.3516 70.5832 94.3516C73.2541 94.3516 75.4268 92.1789 75.4268 89.508C75.4268 86.8371 73.2541 84.6643 70.5832 84.6643ZM96.5236 65.2898H44.6429C43.7505 65.2898 43.0283 66.0119 43.0283 66.9044V79.8207C43.0283 80.7131 43.7505 81.4353 44.6429 81.4353H96.5236C97.416 81.4353 98.1381 80.7131 98.1381 79.8207V66.9044C98.1381 66.0119 97.416 65.2898 96.5236 65.2898ZM51.2087 74.9771C50.317 74.9771 49.5941 74.2542 49.5941 73.3625C49.5941 72.4709 50.317 71.748 51.2087 71.748C52.1003 71.748 52.8232 72.4709 52.8232 73.3625C52.8232 74.2542 52.1003 74.9771 51.2087 74.9771ZM89.9577 74.9771H60.8959C60.0035 74.9771 59.2814 74.2549 59.2814 73.3625C59.2814 72.4701 60.0035 71.748 60.8959 71.748H89.9577C90.8502 71.748 91.5723 72.4701 91.5723 73.3625C91.5723 74.2549 90.8502 74.9771 89.9577 74.9771ZM96.5236 45.9153H44.6429C43.7505 45.9153 43.0283 46.6374 43.0283 47.5298V60.4462C43.0283 61.3386 43.7505 62.0607 44.6429 62.0607H96.5236C97.416 62.0607 98.1381 61.3386 98.1381 60.4462V47.5298C98.1381 46.6374 97.416 45.9153 96.5236 45.9153ZM51.2087 55.6025C50.317 55.6025 49.5941 54.8797 49.5941 53.988C49.5941 53.0963 50.317 52.3735 51.2087 52.3735C52.1003 52.3735 52.8232 53.0963 52.8232 53.988C52.8232 54.8797 52.1003 55.6025 51.2087 55.6025ZM89.9577 55.6025H60.8959C60.0035 55.6025 59.2814 54.8804 59.2814 53.988C59.2814 53.0956 60.0035 52.3735 60.8959 52.3735H89.9577C90.8502 52.3735 91.5723 53.0956 91.5723 53.988C91.5723 54.8804 90.8502 55.6025 89.9577 55.6025Z" fill="url(#paint1_linear)"/>
    <g filter="url(#filter0_f)">
    <rect x="24.5938" y="24.0857" width="91.9793" height="94.436" rx="45.9896" fill="#F392AE" fill-opacity="0.3"/>
    </g>
    <defs>
    <filter id="filter0_f" x="0.59375" y="0.0856934" width="139.979" height="142.436" filterUnits="userSpaceOnUse" color-interpolation-filters="sRGB">
    <feFlood flood-opacity="0" result="BackgroundImageFix"/>
    <feBlend mode="normal" in="SourceGraphic" in2="BackgroundImageFix" result="shape"/>
    <feGaussianBlur stdDeviation="12" result="effect1_foregroundBlur"/>
    </filter>
    <linearGradient id="paint0_linear" x1="70.5829" y1="91.1227" x2="70.5829" y2="47.53" gradientUnits="userSpaceOnUse">
    <stop stop-color="#FFC2CC"/>
    <stop offset="1" stop-color="#FFF2F4"/>
    </linearGradient>
    <linearGradient id="paint1_linear" x1="70.5832" y1="94.3516" x2="70.5832" y2="45.9153" gradientUnits="userSpaceOnUse">
    <stop stop-color="#FD3A84"/>
    <stop offset="1" stop-color="#FFA68D"/>
    </linearGradient>
    </defs>
    </svg>
    