<svg width="141" height="144" viewBox="0 0 141 144" fill="none" xmlns="http://www.w3.org/2000/svg">
    <path d="M100.149 52.1414H83.6807V42.9382C83.6807 41.9342 82.8682 41.1218 81.8643 41.1218H60.0674C59.0634 41.1218 58.251 41.9342 58.251 42.9382V52.1414H41.7822C40.7782 52.1414 39.9658 52.9538 39.9658 53.9578V101.305C39.9658 102.309 40.7782 103.122 41.7822 103.122H47.3525L50.9854 99.489H54.6182L58.251 103.122H65.5166L69.1494 99.489H72.7822L76.415 103.122H83.6807L87.3135 99.489H90.9463L94.5791 103.122H100.149C101.153 103.122 101.966 102.309 101.966 101.305V53.9578C101.966 52.9538 101.153 52.1414 100.149 52.1414Z" fill="url(#paint0_linear)"/>
    <path d="M56.4346 66.6726H49.1689C48.165 66.6726 47.3525 67.485 47.3525 68.489C47.3525 69.493 48.165 70.3054 49.1689 70.3054H56.4346C57.4386 70.3054 58.251 69.493 58.251 68.489C58.251 67.485 57.4386 66.6726 56.4346 66.6726ZM56.4346 59.407H49.1689C48.165 59.407 47.3525 60.2194 47.3525 61.2234C47.3525 62.2274 48.165 63.0398 49.1689 63.0398H56.4346C57.4386 63.0398 58.251 62.2274 58.251 61.2234C58.251 60.2194 57.4386 59.407 56.4346 59.407ZM56.4346 73.9382H49.1689C48.165 73.9382 47.3525 74.7507 47.3525 75.7546C47.3525 76.7586 48.165 77.571 49.1689 77.571H56.4346C57.4386 77.571 58.251 76.7586 58.251 75.7546C58.251 74.7507 57.4386 73.9382 56.4346 73.9382ZM85.4971 63.0398H92.7627C93.7667 63.0398 94.5791 62.2274 94.5791 61.2234C94.5791 60.2194 93.7667 59.407 92.7627 59.407H85.4971C84.4931 59.407 83.6807 60.2194 83.6807 61.2234C83.6807 62.2274 84.4931 63.0398 85.4971 63.0398ZM74.5986 81.2039H67.333C66.329 81.2039 65.5166 82.0163 65.5166 83.0203C65.5166 84.0243 66.329 84.8367 67.333 84.8367H74.5986C75.6026 84.8367 76.415 84.0243 76.415 83.0203C76.415 82.0163 75.6026 81.2039 74.5986 81.2039ZM56.4346 81.2039H49.1689C48.165 81.2039 47.3525 82.0163 47.3525 83.0203C47.3525 84.0243 48.165 84.8367 49.1689 84.8367H56.4346C57.4386 84.8367 58.251 84.0243 58.251 83.0203C58.251 82.0163 57.4386 81.2039 56.4346 81.2039ZM56.4346 88.4695H49.1689C48.165 88.4695 47.3525 89.2819 47.3525 90.2859V103.122H58.251V90.2859C58.251 89.2819 57.4386 88.4695 56.4346 88.4695ZM74.5986 88.4695H67.333C66.329 88.4695 65.5166 89.2819 65.5166 90.2859V103.122H76.415V90.2859C76.415 89.2819 75.6026 88.4695 74.5986 88.4695ZM74.5986 73.9382H67.333C66.329 73.9382 65.5166 74.7507 65.5166 75.7546C65.5166 76.7586 66.329 77.571 67.333 77.571H74.5986C75.6026 77.571 76.415 76.7586 76.415 75.7546C76.415 74.7507 75.6026 73.9382 74.5986 73.9382ZM92.7627 81.2039H85.4971C84.4931 81.2039 83.6807 82.0163 83.6807 83.0203C83.6807 84.0243 84.4931 84.8367 85.4971 84.8367H92.7627C93.7667 84.8367 94.5791 84.0243 94.5791 83.0203C94.5791 82.0163 93.7667 81.2039 92.7627 81.2039ZM92.7627 73.9382H85.4971C84.4931 73.9382 83.6807 74.7507 83.6807 75.7546C83.6807 76.7586 84.4931 77.571 85.4971 77.571H92.7627C93.7667 77.571 94.5791 76.7586 94.5791 75.7546C94.5791 74.7507 93.7667 73.9382 92.7627 73.9382ZM92.7627 66.6726H85.4971C84.4931 66.6726 83.6807 67.485 83.6807 68.489C83.6807 69.493 84.4931 70.3054 85.4971 70.3054H92.7627C93.7667 70.3054 94.5791 69.493 94.5791 68.489C94.5791 67.485 93.7667 66.6726 92.7627 66.6726ZM92.7627 88.4695H85.4971C84.4931 88.4695 83.6807 89.2819 83.6807 90.2859V103.122H94.5791V90.2859C94.5791 89.2819 93.7667 88.4695 92.7627 88.4695ZM74.5986 66.6726H67.333C66.329 66.6726 65.5166 67.485 65.5166 68.489C65.5166 69.493 66.329 70.3054 67.333 70.3054H74.5986C75.6026 70.3054 76.415 69.493 76.415 68.489C76.415 67.485 75.6026 66.6726 74.5986 66.6726ZM74.5986 52.1414H67.333C66.329 52.1414 65.5166 52.9538 65.5166 53.9578C65.5166 54.9618 66.329 55.7742 67.333 55.7742H74.5986C75.6026 55.7742 76.415 54.9618 76.415 53.9578C76.415 52.9538 75.6026 52.1414 74.5986 52.1414ZM74.5986 59.407H67.333C66.329 59.407 65.5166 60.2194 65.5166 61.2234C65.5166 62.2274 66.329 63.0398 67.333 63.0398H74.5986C75.6026 63.0398 76.415 62.2274 76.415 61.2234C76.415 60.2194 75.6026 59.407 74.5986 59.407Z" fill="url(#paint1_linear)"/>
    <g filter="url(#filter0_f)">
    <rect x="24.9766" y="24.9041" width="91.9793" height="94.436" rx="45.9896" fill="#2FBFE6" fill-opacity="0.3"/>
    </g>
    <defs>
    <filter id="filter0_f" x="0.976562" y="0.904053" width="139.979" height="142.436" filterUnits="userSpaceOnUse" color-interpolation-filters="sRGB">
    <feFlood flood-opacity="0" result="BackgroundImageFix"/>
    <feBlend mode="normal" in="SourceGraphic" in2="BackgroundImageFix" result="shape"/>
    <feGaussianBlur stdDeviation="12" result="effect1_foregroundBlur"/>
    </filter>
    <linearGradient id="paint0_linear" x1="70.9658" y1="103.122" x2="70.9658" y2="41.1218" gradientUnits="userSpaceOnUse">
    <stop stop-color="#5558FF"/>
    <stop offset="1" stop-color="#00C0FF"/>
    </linearGradient>
    <linearGradient id="paint1_linear" x1="70.9658" y1="103.122" x2="70.9658" y2="52.1414" gradientUnits="userSpaceOnUse">
    <stop stop-color="#ADDCFF"/>
    <stop offset="0.5028" stop-color="#EAF6FF"/>
    <stop offset="1" stop-color="#EAF6FF"/>
    </linearGradient>
    </defs>
    </svg>
    