<svg width="141" height="144" viewBox="0 0 141 144" fill="none" xmlns="http://www.w3.org/2000/svg">
    <path d="M97.2193 44.7504C97.0306 44.231 96.6525 43.8528 96.1567 43.6877C90.1111 41.7041 83.7346 41.9874 78.114 44.3019L84.9745 55.8856L96.5582 62.7461C98.7137 57.7784 99.2642 51.148 97.2193 44.7504ZM80.2629 79.5136C79.6102 78.8608 78.5539 78.8608 77.9013 79.5136L93.2519 64.163L84.9746 55.8856L76.7205 47.6316L61.3699 62.9822C62.0226 62.3295 62.0226 61.2732 61.3699 60.6206C58.1134 57.3642 52.8171 57.3653 49.5618 60.6206L42.4768 67.7055C41.8241 68.3583 41.8241 69.4145 42.4768 70.0671C43.1296 70.7199 44.1858 70.7199 44.8384 70.0671C46.7918 68.1138 49.9699 68.1138 51.9234 70.0671C52.5761 70.7199 53.6324 70.7199 54.285 70.0671L59.0082 65.3439L66.0931 72.4289H61.3699L60.189 78.3329L56.6466 81.8754C55.9854 82.5366 55.9853 83.5757 56.6466 84.237C57.3079 84.8983 58.347 84.8982 59.0082 84.237L62.5506 80.6945L68.4547 79.5137V74.7905L75.5396 81.8754L70.8164 86.5986C70.1637 87.2513 70.1637 88.3076 70.8164 88.9602C72.7698 90.9136 72.7698 94.0916 70.8164 96.0451C70.1637 96.6978 70.1637 97.7541 70.8164 98.4067C71.4691 99.0594 72.5254 99.0594 73.178 98.4067L80.2629 91.3218C83.5182 88.0663 83.5194 82.77 80.2629 79.5136Z" fill="url(#paint0_linear)"/>
    <path d="M78.1139 44.3019C75.0436 45.5769 72.1625 47.4663 69.7064 49.9223L51.9233 67.7055C51.2622 68.3666 51.262 69.4057 51.9233 70.0671L60.189 78.3327L63.7315 74.7904C64.3927 74.1291 65.4318 74.1291 66.0931 74.7904C66.7544 75.4517 66.7544 76.4906 66.0931 77.152L62.5506 80.6944L70.8163 88.9601C71.4776 89.6214 72.5167 89.6213 73.1779 88.9601L90.961 71.177C93.3697 68.7682 95.2827 65.9107 96.558 62.7461L78.1139 44.3019ZM73.178 74.7904C72.5168 75.4515 71.4777 75.4517 70.8164 74.7904L66.0932 70.0671C65.4319 69.4058 65.432 68.3666 66.0932 67.7055C66.7545 67.0442 67.7935 67.0442 68.4548 67.7055L73.178 72.4287C73.8393 73.0901 73.8393 74.129 73.178 74.7904ZM85.3404 66.7844C85.0568 67.351 84.4665 67.7055 83.8289 67.6818L80.2864 67.6345L78.2316 70.5391C77.8538 71.0588 77.2163 71.3186 76.6022 71.2241C75.9445 71.142 75.4664 70.6971 75.2559 70.0669L74.2169 66.6663L70.8163 65.6273C70.2022 65.4381 69.7532 64.8949 69.6591 64.281C69.5646 63.6669 69.8244 63.0294 70.3441 62.6516L73.2488 60.5968L73.2015 57.0544C73.1779 56.4167 73.5323 55.8264 74.0989 55.5429C74.6656 55.2593 75.3744 55.3068 75.8701 55.7083L78.7279 57.8102L82.0813 56.6765C83.2855 56.2749 84.6082 57.5975 84.2066 58.8018L83.0729 62.1552L85.1748 65.013C85.5764 65.5088 85.6239 66.2178 85.3404 66.7844ZM57.8274 80.6944C55.2237 78.0907 50.9858 78.0895 48.3809 80.6944C47.6625 81.4128 47.1309 82.258 46.801 83.206L41.5909 97.1444C41.3776 97.7498 41.5309 98.4221 41.9852 98.8764C42.4395 99.3308 43.1118 99.4841 43.7172 99.2708L57.6762 94.0835C58.6253 93.7526 59.4705 93.221 60.1889 92.5026C62.7939 89.8977 62.7926 85.6599 60.1889 83.056L57.8274 80.6944Z" fill="url(#paint1_linear)"/>
    <g filter="url(#filter0_f)">
    <rect x="24.252" y="24.6155" width="91.9793" height="94.436" rx="45.9896" fill="#8FCBA8" fill-opacity="0.3"/>
    </g>
    <defs>
    <filter id="filter0_f" x="0.251953" y="0.615479" width="139.979" height="142.436" filterUnits="userSpaceOnUse" color-interpolation-filters="sRGB">
    <feFlood flood-opacity="0" result="BackgroundImageFix"/>
    <feBlend mode="normal" in="SourceGraphic" in2="BackgroundImageFix" result="shape"/>
    <feGaussianBlur stdDeviation="12" result="effect1_foregroundBlur"/>
    </filter>
    <linearGradient id="paint0_linear" x1="56.6485" y1="84.2287" x2="96.7961" y2="44.0811" gradientUnits="userSpaceOnUse">
    <stop stop-color="#C1FDE6"/>
    <stop offset="0.9973" stop-color="#EDFFF2"/>
    </linearGradient>
    <linearGradient id="paint1_linear" x1="42.0004" y1="98.8768" x2="87.345" y2="53.5322" gradientUnits="userSpaceOnUse">
    <stop stop-color="#00B39A"/>
    <stop offset="1" stop-color="#9AFDAA"/>
    </linearGradient>
    </defs>
    </svg>
    