<svg width="172" height="141" viewBox="0 0 172 141" fill="none" xmlns="http://www.w3.org/2000/svg">
    <g filter="url(#filter0_d)">
    <path d="M52.4304 82.5722C51.0284 81.1702 51.0284 78.8973 52.4304 77.4955L73.4475 56.4783C74.8495 55.0768 77.1222 55.0764 78.524 56.4783L91.7389 69.6933L112.551 48.8809H103.33C101.348 48.8809 99.7406 47.2738 99.7406 45.2912C99.7406 43.3087 101.348 41.7016 103.33 41.7016H121.216C123.23 41.7005 124.807 43.3476 124.807 45.2912V63.1784C124.807 65.161 123.2 66.7681 121.217 66.7681C119.235 66.7681 117.628 65.161 117.628 63.1784V53.9575L94.2771 77.3081C92.8752 78.7101 90.6024 78.7101 89.2007 77.3081L75.9858 64.0932L57.5068 82.5722C56.1051 83.9741 53.8319 83.9737 52.4304 82.5722Z" fill="url(#paint0_linear)"/>
    </g>
    <g filter="url(#filter1_f)">
    <path d="M40.6133 65.2785C40.6133 39.0563 61.8706 17.7991 88.0928 17.7991C114.315 17.7991 135.572 39.0564 135.572 65.2786V67.8149C135.572 94.0371 114.315 115.294 88.0928 115.294C61.8706 115.294 40.6133 94.0371 40.6133 67.8149V65.2785Z" fill="#D691FD" fill-opacity="0.3"/>
    </g>
    <defs>
    <filter id="filter0_d" x="0.791539" y="-8.88578" width="176.668" height="145.161" filterUnits="userSpaceOnUse" color-interpolation-filters="sRGB">
    <feFlood flood-opacity="0" result="BackgroundImageFix"/>
    <feColorMatrix in="SourceAlpha" type="matrix" values="0 0 0 0 0 0 0 0 0 0 0 0 0 0 0 0 0 0 127 0" result="hardAlpha"/>
    <feOffset dx="1.0324" dy="1.0324"/>
    <feGaussianBlur stdDeviation="25.8099"/>
    <feComposite in2="hardAlpha" operator="out"/>
    <feColorMatrix type="matrix" values="0 0 0 0 0.490928 0 0 0 0 0.470833 0 0 0 0 1 0 0 0 1 0"/>
    <feBlend mode="lighten" in2="BackgroundImageFix" result="effect1_dropShadow"/>
    <feBlend mode="normal" in="SourceGraphic" in2="effect1_dropShadow" result="shape"/>
    </filter>
    <filter id="filter1_f" x="15.8358" y="-6.97842" width="144.514" height="147.05" filterUnits="userSpaceOnUse" color-interpolation-filters="sRGB">
    <feFlood flood-opacity="0" result="BackgroundImageFix"/>
    <feBlend mode="normal" in="SourceGraphic" in2="BackgroundImageFix" result="shape"/>
    <feGaussianBlur stdDeviation="12.3887" result="effect1_foregroundBlur"/>
    </filter>
    <linearGradient id="paint0_linear" x1="42.1457" y1="87.649" x2="134.04" y2="87.649" gradientUnits="userSpaceOnUse">
    <stop stop-color="#80D8FF"/>
    <stop offset="1" stop-color="#EA80FC"/>
    </linearGradient>
    </defs>
    </svg>
    