<svg width="25" height="25" viewBox="0 0 25 25" fill="none" xmlns="http://www.w3.org/2000/svg">
    <circle cx="12.6133" cy="12.906" r="12" fill="white"/>
    <path fill-rule="evenodd" clip-rule="evenodd" d="M12.6133 24.906C15.7959 24.906 18.8481 23.6417 21.0986 21.3913C23.349 19.1409 24.6133 16.0886 24.6133 12.906C24.6133 9.72341 23.349 6.67116 21.0986 4.42072C18.8481 2.17029 15.7959 0.906006 12.6133 0.906006C9.43068 0.906006 6.37844 2.17029 4.128 4.42072C1.87756 6.67116 0.613281 9.72341 0.613281 12.906C0.613281 16.0886 1.87756 19.1409 4.128 21.3913C6.37844 23.6417 9.43068 24.906 12.6133 24.906ZM18.1738 10.9665C18.447 10.6836 18.5982 10.3047 18.5948 9.9114C18.5914 9.51811 18.4336 9.14189 18.1555 8.86378C17.8774 8.58567 17.5012 8.42791 17.1079 8.42449C16.7146 8.42108 16.3357 8.57227 16.0528 8.84551L11.1133 13.785L9.17378 11.8455C8.89088 11.5723 8.51197 11.4211 8.11868 11.4245C7.72538 11.4279 7.34917 11.5857 7.07105 11.8638C6.79294 12.1419 6.63519 12.5181 6.63177 12.9114C6.62835 13.3047 6.77954 13.6836 7.05278 13.9665L10.0528 16.9665C10.3341 17.2477 10.7155 17.4057 11.1133 17.4057C11.511 17.4057 11.8925 17.2477 12.1738 16.9665L18.1738 10.9665Z" fill="#0C8C20"/>
    </svg>
    