<svg width="30" height="30" viewBox="0 0 30 30" fill="none" xmlns="http://www.w3.org/2000/svg">
    <path fill-rule="evenodd" clip-rule="evenodd" d="M9.40487 0.39377C10.9534 0.322482 11.4471 0.306641 15.3917 0.306641C19.3363 0.306641 19.8301 0.323803 21.3773 0.39377C22.9245 0.463738 23.9806 0.710606 24.9047 1.06837C25.8724 1.43405 26.7503 2.00567 27.4764 2.74495C28.2156 3.46971 28.786 4.34629 29.1503 5.31528C29.5094 6.23938 29.7549 7.2955 29.8262 8.84007C29.8975 10.3912 29.9134 10.885 29.9134 14.8283C29.9134 18.7729 29.8962 19.2666 29.8262 20.8151C29.7563 22.3597 29.5094 23.4158 29.1503 24.3399C28.7859 25.309 28.2147 26.1871 27.4764 26.9129C26.7503 27.6522 25.8724 28.2225 24.9047 28.5868C23.9806 28.9459 22.9245 29.1915 21.3799 29.2628C19.8301 29.334 19.3363 29.3499 15.3917 29.3499C11.4471 29.3499 10.9534 29.3327 9.40487 29.2628C7.8603 29.1928 6.80418 28.9459 5.88008 28.5868C4.91098 28.2224 4.03295 27.6512 3.30711 26.9129C2.56833 26.1877 1.99662 25.3101 1.63184 24.3412C1.27408 23.4171 1.02853 22.361 0.957247 20.8165C0.885959 19.2653 0.870117 18.7715 0.870117 14.8283C0.870117 10.8837 0.887279 10.3899 0.957247 8.84271C1.02721 7.2955 1.27408 6.23938 1.63184 5.31528C1.99716 4.3464 2.5693 3.46881 3.30843 2.74363C4.03324 2.00501 4.91039 1.43331 5.87876 1.06837C6.80286 0.710606 7.85898 0.465058 9.40355 0.39377H9.40487ZM21.2598 3.00766C19.7284 2.93769 19.269 2.92317 15.3917 2.92317C11.5145 2.92317 11.0551 2.93769 9.52368 3.00766C8.10716 3.07235 7.33884 3.30866 6.82662 3.508C6.14939 3.77203 5.66489 4.0849 5.15664 4.59316C4.67484 5.06188 4.30406 5.63249 4.07147 6.26315C3.87213 6.77536 3.63583 7.54369 3.57114 8.96021C3.50117 10.4916 3.48665 10.951 3.48665 14.8283C3.48665 18.7055 3.50117 19.1649 3.57114 20.6963C3.63583 22.1128 3.87213 22.8812 4.07147 23.3934C4.30382 24.0231 4.67478 24.5947 5.15664 25.0634C5.62529 25.5452 6.19691 25.9162 6.82662 26.1485C7.33884 26.3479 8.10716 26.5842 9.52368 26.6489C11.0551 26.7188 11.5131 26.7334 15.3917 26.7334C19.2703 26.7334 19.7284 26.7188 21.2598 26.6489C22.6763 26.5842 23.4446 26.3479 23.9569 26.1485C24.6341 25.8845 25.1186 25.5716 25.6268 25.0634C26.1087 24.5947 26.4797 24.0231 26.712 23.3934C26.9113 22.8812 27.1477 22.1128 27.2123 20.6963C27.2823 19.1649 27.2968 18.7055 27.2968 14.8283C27.2968 10.951 27.2823 10.4916 27.2123 8.96021C27.1477 7.54369 26.9113 6.77536 26.712 6.26315C26.448 5.58591 26.1351 5.10142 25.6268 4.59316C25.1581 4.1114 24.5875 3.74062 23.9569 3.508C23.4446 3.30866 22.6763 3.07235 21.2598 3.00766ZM13.5369 19.3049C14.5728 19.7361 15.7262 19.7943 16.8002 19.4695C17.8742 19.1448 18.8022 18.4572 19.4256 17.5243C20.049 16.5914 20.3292 15.471 20.2183 14.3545C20.1074 13.2379 19.6123 12.1945 18.8175 11.4025C18.3109 10.8962 17.6983 10.5085 17.0239 10.2673C16.3494 10.0262 15.6299 9.93759 14.9171 10.0079C14.2043 10.0782 13.516 10.3057 12.9017 10.6739C12.2874 11.0422 11.7623 11.5421 11.3644 12.1376C10.9664 12.7331 10.7055 13.4095 10.6003 14.118C10.4951 14.8265 10.5483 15.5494 10.7561 16.2349C10.9639 16.9204 11.321 17.5512 11.8019 18.0821C12.2827 18.6129 12.8753 19.0305 13.5369 19.3049ZM10.1138 9.55031C10.8069 8.8572 11.6297 8.3074 12.5353 7.93229C13.4409 7.55718 14.4115 7.36411 15.3917 7.36411C16.3719 7.36411 17.3426 7.55718 18.2481 7.93229C19.1537 8.3074 19.9766 8.8572 20.6697 9.55031C21.3628 10.2434 21.9126 11.0663 22.2877 11.9719C22.6628 12.8774 22.8559 13.8481 22.8559 14.8283C22.8559 15.8085 22.6628 16.7791 22.2877 17.6847C21.9126 18.5903 21.3628 19.4131 20.6697 20.1062C19.2699 21.506 17.3714 22.2924 15.3917 22.2924C13.4121 22.2924 11.5136 21.506 10.1138 20.1062C8.71399 18.7064 7.92759 16.8079 7.92759 14.8283C7.92759 12.8486 8.71399 10.9501 10.1138 9.55031ZM24.5113 8.47571C24.6831 8.31369 24.8206 8.11885 24.9157 7.90273C25.0108 7.68662 25.0616 7.45361 25.065 7.21752C25.0685 6.98143 25.0245 6.74704 24.9357 6.52824C24.847 6.30945 24.7152 6.11068 24.5482 5.94372C24.3813 5.77676 24.1825 5.645 23.9637 5.55623C23.7449 5.46746 23.5105 5.4235 23.2744 5.42694C23.0383 5.43038 22.8053 5.48116 22.5892 5.57627C22.3731 5.67137 22.1783 5.80888 22.0162 5.98063C21.7011 6.31467 21.5286 6.75836 21.5353 7.21752C21.542 7.67668 21.7274 8.11515 22.0521 8.43986C22.3768 8.76457 22.8153 8.94995 23.2744 8.95664C23.7336 8.96334 24.1773 8.79082 24.5113 8.47571Z" fill="#848484"/>
    </svg>
    