<svg width="26" height="27" viewBox="0 0 26 27" fill="none" xmlns="http://www.w3.org/2000/svg">
    <path d="M10.3333 16.5727L13 13.906L10.3333 16.5727ZM13 13.906L15.6667 11.2393L13 13.906ZM13 13.906L10.3333 11.2393L13 13.906ZM13 13.906L15.6667 16.5727L13 13.906ZM25 13.906C25 15.4819 24.6896 17.0423 24.0866 18.4982C23.4835 19.9541 22.5996 21.277 21.4853 22.3913C20.371 23.5056 19.0481 24.3895 17.5922 24.9926C16.1363 25.5956 14.5759 25.906 13 25.906C11.4241 25.906 9.86371 25.5956 8.4078 24.9926C6.95189 24.3895 5.62902 23.5056 4.51472 22.3913C3.40042 21.277 2.5165 19.9541 1.91345 18.4982C1.31039 17.0423 1 15.4819 1 13.906C1 10.7234 2.26428 7.67116 4.51472 5.42072C6.76516 3.17029 9.8174 1.90601 13 1.90601C16.1826 1.90601 19.2348 3.17029 21.4853 5.42072C23.7357 7.67116 25 10.7234 25 13.906Z" stroke="#848484" stroke-width="2" stroke-linecap="round" stroke-linejoin="round"/>
    </svg>
    