<svg width="30" height="30" viewBox="0 0 30 30" fill="none" xmlns="http://www.w3.org/2000/svg">
    <path d="M30.0003 14.8283C30.0003 18.6796 28.4703 22.3733 25.747 25.0966C23.0237 27.8199 19.33 29.3499 15.4787 29.3499C11.6273 29.3499 7.93365 27.8199 5.21032 25.0966C2.48698 22.3733 0.957031 18.6796 0.957031 14.8283C0.957031 10.9769 2.48698 7.28326 5.21032 4.55993C7.93365 1.83659 11.6273 0.306641 15.4787 0.306641C19.33 0.306641 23.0237 1.83659 25.747 4.55993C28.4703 7.28326 30.0003 10.9769 30.0003 14.8283ZM15.9996 11.0272C14.5874 11.6154 11.7629 12.8315 7.52988 14.6758C6.84373 14.9481 6.48251 15.2167 6.44983 15.4781C6.39538 15.9192 6.94902 16.0935 7.70232 16.3313L8.01999 16.4311C8.76059 16.6725 9.75895 16.9539 10.2763 16.9648C10.7482 16.9756 11.2728 16.7832 11.8519 16.3839C15.8072 13.7137 17.8493 12.365 17.9764 12.336C18.0671 12.3142 18.1942 12.2888 18.2777 12.365C18.363 12.4395 18.3539 12.5829 18.3449 12.621C18.2904 12.8551 16.1176 14.8736 14.994 15.9192C14.6437 16.2459 14.395 16.4765 14.3442 16.5291C14.2322 16.6435 14.1185 16.756 14.0029 16.8667C13.3131 17.5311 12.7976 18.0285 14.0301 18.8417C14.6237 19.2338 15.0993 19.555 15.573 19.8782C16.0886 20.2303 16.6041 20.5806 17.2721 21.0199C17.4409 21.1288 17.6043 21.2468 17.7622 21.3594C18.363 21.7877 18.9058 22.1726 19.5719 22.1109C19.9604 22.0746 20.3615 21.7115 20.5649 20.6224C21.0459 18.0502 21.9916 12.4794 22.2094 10.1832C22.2227 9.99228 22.2148 9.80051 22.1858 9.61137C22.1687 9.45875 22.0949 9.31814 21.9789 9.21747C21.8137 9.10346 21.6168 9.04439 21.4162 9.04866C20.8716 9.05773 20.0312 9.34998 15.9996 11.0272Z" fill="#848484"/>
    </svg>
    