<svg width="30" height="25" viewBox="0 0 30 25" fill="none" xmlns="http://www.w3.org/2000/svg">
    <path d="M29.9573 3.74357C28.8893 4.22106 27.7419 4.54369 26.5357 4.68952C27.7803 3.93817 28.7114 2.75564 29.1553 1.36257C27.986 2.06331 26.7063 2.55655 25.3717 2.82086C24.4743 1.85409 23.2856 1.2133 21.9902 0.997971C20.6948 0.782646 19.3652 1.00483 18.2078 1.63004C17.0504 2.25524 16.1299 3.24848 15.5894 4.45556C15.0488 5.66263 14.9183 7.016 15.2182 8.30554C12.8489 8.18552 10.5311 7.56421 8.41525 6.48192C6.29936 5.39964 4.43266 3.88058 2.93632 2.02332C2.42468 2.91377 2.13049 3.94618 2.13049 5.0457C2.12992 6.03552 2.37151 7.01018 2.83384 7.8832C3.29616 8.75622 3.96492 9.50061 4.78078 10.0503C3.8346 10.0199 2.9093 9.762 2.08188 9.29795V9.37538C2.08179 10.7636 2.55775 12.1092 3.42901 13.1837C4.30027 14.2582 5.51316 14.9955 6.86188 15.2704C5.98414 15.5101 5.06389 15.5454 4.17065 15.3737C4.55118 16.5682 5.29242 17.6128 6.29059 18.3611C7.28876 19.1095 8.4939 19.5242 9.73729 19.5472C7.62657 21.219 5.01983 22.1258 2.33642 22.1218C1.86108 22.1219 1.38615 22.0939 0.914062 22.0379C3.63788 23.8048 6.80859 24.7426 10.0468 24.739C21.0087 24.739 27.0013 15.5789 27.0013 7.63447C27.0013 7.37637 26.9949 7.11569 26.9834 6.85758C28.149 6.0071 29.1552 4.95394 29.9547 3.74745L29.9573 3.74357Z" fill="#848484"/>
    </svg>
    